{"title":"Held Hostage 2009.DvDRip.XviD.Ac3.Feel-Free","uid":5908077,"size":760685827,"categoryP":"video","categoryS":"movies","magnet":"?xt=urn:btih:cbbda66f5953e7bc6ae9ec095cda2cb59953c217&amp;dn=Held+Hostage+2009.DvDRip.XviD.Ac3.Feel-Free&amp;tr=udp%3A%2F%2Ftracker.openbittorrent.com%3A80&amp;tr=udp%3A%2F%2Fopen.demonii.com%3A1337&amp;tr=udp%3A%2F%2Ftracker.coppersurfer.tk%3A6969&amp;tr=udp%3A%2F%2Fexodus.desync.com%3A6969","seeders":1,"leechers":0,"uploader":".BONE.","files":7,"time":1287953577,"description":"Genre:Drama\nLanguage:English &lt;a href=&quot;\nhttp://www.imdb.com/title/tt1422191/&quot; rel=&quot;nofollow&quot; target=&quot;_NEW&quot;&gt;\nhttp://www.imdb.com/title/tt1422191/&lt;/a&gt;\nSource:DVD\n\nGeneral\nComplete name :Held Hostage 2009.DvDRip.XviD.Ac3.Feel-Free\nFormat : AVI\nFormat/Info : Audio Video Interleave\nFile size : 725 MiB\nDuration : 1h 25mn\nVideo #0\nCodec ID : XVID\nCodec ID/Hint : XviD\nDuration : 1h 25mn\nBit rate : 727 Kbps\nWidth : 720 pixels\nHeight : 384 pixels\nDisplay aspect ratio : 1.875\nFrame rate : 25.000 fps\nResolution : 24 bits\nColorimetry : 4:2:0\nScan type : Progressive\nBits/(Pixel*Frame) : 0.105\nStream size : 445 MiB (61%)\nWriting library : XviD 1.3.0.dev55\nAudio #1\nID : 1\nFormat : AC-3\nFormat/Info : Audio Coding 3\nCodec ID : 2000\nDuration : 1h 25mn\nBit rate mode : Constant\nBit rate : 448 Kbps\nChannel(s) : 6 channels\nChannel positions : Front: L C R, Surround: L R, LFE\nSampling rate : 48.0 KHz\nStream size : 274 MiB (38%)\nAlignment : Split accross interleaves\nInterleave, duration : 40 ms (1.00 video frame)\nInterleave, preload duration : 500 ms\n\nPlot:\nMichelle a single mother is kidnapped by three masked men and held hostage until she is forced to rob a bank which is the only option she has to saving her only child's life while they are both wired to explode.","torrent":{"xt":"urn:btih:cbbda66f5953e7bc6ae9ec095cda2cb59953c217","amp;dn":"Held+Hostage+2009.DvDRip.XviD.Ac3.Feel-Free","amp;tr":["udp%3A%2F%2Ftracker.openbittorrent.com%3A80","udp%3A%2F%2Fopen.demonii.com%3A1337","udp%3A%2F%2Ftracker.coppersurfer.tk%3A6969","udp%3A%2F%2Fexodus.desync.com%3A6969"],"infoHash":"cbbda66f5953e7bc6ae9ec095cda2cb59953c217","infoHashBuffer":{"type":"Buffer","data":[203,189,166,111,89,83,231,188,106,233,236,9,92,218,44,181,153,83,194,23]},"announce":[],"urlList":[]}}